<?xml version="1.0" encoding="utf-8"?>
<!-- Generator: Adobe Illustrator 19.0.0, SVG Export Plug-In . SVG Version: 6.00 Build 0)  -->
<!DOCTYPE svg PUBLIC "-//W3C//DTD SVG 1.1//EN" "http://www.w3.org/Graphics/SVG/1.1/DTD/svg11.dtd">
<svg version="1.1" id="Layer_1" xmlns="http://www.w3.org/2000/svg" xmlns:xlink="http://www.w3.org/1999/xlink" x="0px" y="0px"
	 width="792px" height="612px" viewBox="332 -242 792 612" style="enable-background:new 332 -242 792 612;" xml:space="preserve">
<style type="text/css">
	.st0{fill:#262626;}
	.st1{fill:#B2B2B2;}
	.st2{fill:#FFFFFF;}
</style>
<g>
	<g>
		<path class="st0" d="M463.3,80.2c-7.9,0-14.3,6.2-14.3,14c0,7.7,6.5,14,14.3,14c7.9,0,14.3-6.3,14.3-14S471.2,80.2,463.3,80.2z"/>
		<g>
			<path class="st0" d="M556.8,80.2c-7.9,0-14.3,6.2-14.3,14c0,7.7,6.4,14,14.3,14c7.9,0,14.3-6.3,14.3-14S564.5,80.2,556.8,80.2z"
				/>
			<g>
				<path class="st0" d="M621.3,80h-9v19.2h9c5.4,0,9.8-4.3,9.8-9.6S626.8,80,621.3,80z"/>
				<g>
					<path class="st0" d="M655.7,46.4h-5.3H377.2C361,46.4,348,59.5,348,75.6V115c0,16.1,13.1,29.2,29.2,29.2h273.2h15.2h5.1V46.4
						H655.7z M405.5,123c-16.2,0-29.5-13-29.5-28.8s13.3-28.8,29.5-28.8c7.2,0,14.6,2.7,19.9,7.5L416.2,85c-2.6-3-6.8-4.8-10.8-4.8
						c-7.8,0-14.3,6.3-14.3,14s6.4,14,14.3,14c4.2,0,8.2-1.8,10.9-4.9l9.4,11.9C420.3,120.1,412.8,123,405.5,123z M463.3,122.9
						c-16.2,0-29.5-13-29.5-28.8s13.3-28.8,29.5-28.8c16.2,0,29.5,13,29.5,28.8S479.5,122.9,463.3,122.9z M518,102h-16.2V86.2h0.1
						H518V102z M556.8,122.9c-16.2,0-29.5-13-29.5-28.8s13.3-28.8,29.5-28.8s29.5,13,29.5,28.8S573,122.9,556.8,122.9z M621.3,114
						h-9v8.9H598V65.2h23.4c13.7,0,25,11,25,24.4C646.3,103,635,114,621.3,114z M659.2,118.4c-0.7,1.2-1.7,2.2-2.9,2.9s-2.5,1-3.9,1
						c-1.4,0-2.7-0.4-3.9-1c-1.2-0.7-2.2-1.7-2.9-2.9c-0.7-1.2-1.1-2.5-1.1-3.9c0-1.4,0.4-2.7,1.1-3.9s1.7-2.2,2.9-2.9
						c1.2-0.7,2.5-1,3.9-1c1.4,0,2.7,0.3,3.9,1c1.2,0.7,2.2,1.7,2.9,2.9c0.7,1.2,1.1,2.5,1.1,3.9
						C660.2,115.9,659.9,117.2,659.2,118.4z"/>
					<path class="st0" d="M653,112c-0.2-0.2-0.6-0.3-1.2-0.3h-1v2.2h0.9c0.6,0,1-0.1,1.3-0.3c0.2-0.2,0.4-0.4,0.4-0.8
						C653.4,112.4,653.3,112.2,653,112z"/>
					<path class="st0" d="M652.2,108.1c-1.8,0-3.2,0.6-4.5,1.9c-1.2,1.2-1.9,2.7-1.9,4.5s0.6,3.2,1.9,4.5c1.2,1.2,2.7,1.9,4.5,1.9
						s3.2-0.6,4.5-1.9c1.3-1.2,1.9-2.7,1.9-4.5c0-1.7-0.6-3.2-1.9-4.5C655.5,108.8,654,108.1,652.2,108.1z M653.7,118.7
						c-0.8-1.6-1.3-2.5-1.6-2.9c-0.3-0.3-0.5-0.5-0.8-0.5c-0.1,0-0.1,0-0.3,0v3.3h-2.1v-8.3h3.7c1.1,0,1.8,0.2,2.3,0.6
						c0.5,0.4,0.7,1,0.7,1.7c0,0.6-0.2,1-0.5,1.5c-0.4,0.4-0.9,0.7-1.7,0.9c0.3,0.1,0.6,0.3,0.7,0.4c0.2,0.2,0.4,0.5,0.7,0.9
						c0,0,0.5,0.8,1.4,2.4H653.7z"/>
				</g>
			</g>
		</g>
	</g>
	<path class="st1" d="M1078.8,46.4H864H801h-17.4v97.8h7H864h214.8c16.1,0,29.2-13.1,29.2-29.2V75.6
		C1108.1,59.5,1095,46.4,1078.8,46.4z"/>
	<path class="st0" d="M1058,68c5.3,0,10,0.9,14.2,2.8c4.2,1.9,7.7,4.9,10.4,8.9c2.5,3.6,4.1,7.7,4.8,12.4c0.4,2.8,0.6,6.8,0.5,12
		h-44c0.2,6,2.4,10.3,6.3,12.7c2.4,1.5,5.3,2.3,8.7,2.3c3.6,0,6.5-0.9,8.8-2.8c1.2-1,2.3-2.4,3.2-4.2h16.1
		c-0.4,3.6-2.4,7.2-5.9,10.9c-5.4,5.9-13,8.8-22.7,8.8c-8,0-15.1-2.5-21.3-7.4c-3.3-2.7-5.8-6.3-7.3-10.8v16.2h-16.1V91.4
		c0-2.3-0.4-4.2-1.1-5.6c-1.4-2.8-4-4.2-7.7-4.2c-4.4,0-7.4,1.8-9,5.4c-0.9,1.9-1.3,4.2-1.3,6.9v35.9h-15.9V93.9
		c0-3.6-0.4-6.2-1.1-7.8c-1.3-2.9-3.9-4.4-7.8-4.4c-4.5,0-7.5,1.5-9.1,4.4c-0.8,1.7-1.3,4.1-1.3,7.4v36.3h-16v-19.5
		c-1.2,4.5-3.3,8.6-6.3,12.2c-5.1,6.3-12.8,9.4-23.2,9.4s-18.1-3.1-23.2-9.4c-3.8-4.7-6.2-10.1-7.1-16.2v23.5h-16.1V93.2
		c0-3.2-0.5-5.9-1.6-7.9c-1.4-2.8-4.2-4.2-8.2-4.2c-4.1,0-7.3,1.4-9.4,4.2c-2.1,2.8-3.2,6.8-3.2,11.9v32.6h-15.7v-74h15.7v21.6
		c2.3-3.5,4.9-5.9,7.9-7.3s6.2-2.1,9.5-2.1c3.7,0,7.1,0.6,10.1,1.9s5.5,3.2,7.5,5.9c1.7,2.2,2.7,4.6,3,6.9c0.3,2.2,0.5,5.8,0.5,10.6
		c1-6.1,3.3-11.5,7.1-16.2c5.1-6.4,12.8-9.6,23.2-9.6s18.1,3.2,23.2,9.6c2.9,3.7,5,7.8,6.3,12.2V69.5h15.3v8.8
		c1.9-3.1,3.8-5.4,5.5-6.7c3.1-2.4,7-3.5,11.9-3.5c4.6,0,8.3,1,11.2,3c2.3,1.9,4,4.3,5.2,7.3c2.1-3.6,4.6-6.1,7.7-7.8
		c3.2-1.7,6.9-2.5,10.8-2.5c2.7,0,5.3,0.5,7.9,1.5c2.6,1,4.9,2.8,7,5.4c1.7,2.1,2.8,4.7,3.4,7.7c0.2,1.1,0.3,2.5,0.4,4.1
		c1.4-4.3,3.5-7.8,6.4-10.8C1041.8,70.8,1049.1,68,1058,68L1058,68z M914,118.8c4.6,0,8.2-1.6,10.6-4.9c2.5-3.3,3.7-8,3.7-14
		s-1.2-10.7-3.7-14s-6-4.9-10.6-4.9s-8.2,1.6-10.7,4.9s-3.7,7.9-3.7,14c0,6,1.2,10.7,3.7,14S909.3,118.8,914,118.8L914,118.8z
		 M1058,81c-4.1,0-7.2,1.2-9.4,3.4c-2.2,2.3-3.6,5.4-4.2,9.3h27.2c-0.3-4.2-1.7-7.3-4.2-9.5C1064.8,82.1,1061.7,81,1058,81L1058,81z
		"/>
	<g>
		<g>
			<path class="st2" d="M788.3,71.5v64.2c0,8.2-6.7,14.8-14.8,14.8h-90.2c-8.2,0-14.8-6.7-14.8-14.8V71.5c-4.6,0-9.3,0.1-13.9,0
				c-7.2-0.2-10.3-7.3-5.5-12.7l7.5-8.4l15.1-17V4.9H697L714.8-15c9.2-10.3,19.1-9.9,28.1,0.2L772,17.8l29.1,32.8
				c1.7,1.9,3.4,3.9,5.2,5.8c2.5,2.8,4.8,6.2,3.2,10.1c-1.8,4.4-6.4,4.7-10.4,4.8L788.3,71.5L788.3,71.5z"/>
			<path class="st0" d="M728.5-22.5c4.8,0,9.6,2.6,14.2,7.8L772,17.9L801,50.7c1.7,1.9,3.4,3.9,5.2,5.8c2.5,2.8,4.8,6.2,3.2,10.1
				c-1.8,4.4-6.4,4.7-10.4,4.8l-10.6,0.2v64.2c0,8.2-6.7,14.8-14.8,14.8h-90.2c-8.2,0-14.8-6.7-14.8-14.8V71.6c-2.9,0-5.7,0-8.6,0
				c-1.8,0-3.5,0-5.3,0c-7.2-0.2-10.3-7.3-5.5-12.7l7.5-8.4l15.1-17V5h25.3l17.7-19.9C719.2-20.1,723.8-22.5,728.5-22.5 M728.5-25.5
				L728.5-25.5c-5.7,0-11.1,2.9-16.1,8.6L695.7,2h-24h-3v3v27.3l-14.3,16.1l-7.5,8.4c-3,3.4-3.8,7.8-2.2,11.5s5.4,6.1,9.9,6.2
				c1.6,0,3.4,0,5.4,0c1.8,0,3.5,0,5.3,0c0.1,0,0.2,0,0.3,0v61.2c0,9.8,8,17.8,17.8,17.8h90.2c9.8,0,17.8-8,17.8-17.8V74.5l7.7-0.1
				c3.4-0.1,10.5-0.2,13.2-6.6c2.6-6.2-2-11.3-3.7-13.2c-1.1-1.3-2.3-2.5-3.4-3.8c-0.6-0.7-1.2-1.3-1.8-2L774.2,16L745-16.8
				C739.8-22.6,734.2-25.5,728.5-25.5L728.5-25.5z"/>
		</g>
		<path class="st0" d="M782.2,66.5v70.3c0,4.8-3.9,8.7-8.7,8.7h-90.2c-4.8,0-8.7-3.9-8.7-8.7V66.5h-4.2c-5.2,0-10.5,0-15.7,0
			c-2-0.1-2.2-1-1.1-2.5l7.5-8.4l29-32.6l29.1-32.8c6.6-8.2,12.9-7.1,19,0.2L767.3,23l29.1,32.8c1.7,2,3.5,3.9,5.2,5.9
			c3.4,3.7,3,4.6-2.8,4.6l-12.3,0.2L782.2,66.5L782.2,66.5z"/>
		<polygon class="st0" points="675.5,8.6 693,8.6 693,9.1 675.5,28.7 		"/>
		<path class="st2" d="M760.8,107.5h9.2c-2.9,5.8-7.3,10.3-13.2,13.6c-6.8,3.8-15.1,5.6-24.9,5.6c-9.5,0-17.7-1.6-24.6-4.8
			c-6.9-3.2-12-7.9-15.4-14.1c-3.4-6.2-5-12.9-5-20.2c0-8,1.9-15.5,5.7-22.4c3.8-6.9,9.1-12.1,15.7-15.6c6.6-3.5,14.2-5.2,22.8-5.2
			c7.2,0,13.7,1.4,19.3,4.2c5.6,2.8,9.9,6.8,12.9,11.9s4.5,10.8,4.5,16.9c0,7.3-2.3,13.8-6.8,19.7c-5.7,7.4-12.9,11.1-21.8,11.1
			c-2.4,0-4.2-0.4-5.4-1.2c-1.2-0.8-2-2-2.4-3.6c-3.4,3.3-7.3,4.9-11.7,4.9c-4.8,0-8.7-1.6-11.9-4.9c-3.2-3.3-4.7-7.6-4.7-13
			c0-6.7,1.9-12.8,5.7-18.3c4.6-6.7,10.5-10.1,17.7-10.1c5.1,0,8.9,1.9,11.3,5.8l1.1-4.8h11.4l-6.5,30.7c-0.4,1.9-0.6,3.2-0.6,3.8
			c0,0.7,0.2,1.2,0.5,1.6c0.3,0.3,0.7,0.5,1.2,0.5c1.4,0,3.2-0.8,5.4-2.5c2.9-2.2,5.3-5.1,7.1-8.7s2.7-7.4,2.7-11.3
			c0-7-2.5-12.9-7.7-17.6c-5.1-4.7-12.3-7.1-21.4-7.1c-7.8,0-14.4,1.6-19.8,4.7c-5.4,3.2-9.5,7.6-12.2,13.3
			c-2.8,5.7-4.1,11.7-4.1,17.8c0,6,1.5,11.5,4.6,16.4c3.1,4.9,7.4,8.5,12.9,10.8s11.9,3.4,19,3.4c6.9,0,12.8-0.9,17.7-2.8
			C753.8,114.1,757.8,111.3,760.8,107.5L760.8,107.5z M714.2,89.9c0,3.6,0.7,6.3,2.2,8s3.3,2.6,5.5,2.6c1.6,0,3.2-0.4,4.6-1.2
			c1.1-0.6,2.2-1.5,3.2-2.7c1.5-1.7,2.8-4.3,3.9-7.6c1.1-3.3,1.7-6.4,1.7-9.3c0-3.2-0.8-5.7-2.3-7.4c-1.5-1.7-3.4-2.6-5.7-2.6
			c-2.5,0-4.8,0.9-6.9,2.8c-2.1,1.9-3.7,4.6-4.8,8.1C714.7,84.1,714.2,87.2,714.2,89.9L714.2,89.9z"/>
	</g>
</g>
</svg>
