<?xml version="1.0" encoding="utf-8"?>
<!-- Generator: Adobe Illustrator 19.0.0, SVG Export Plug-In . SVG Version: 6.00 Build 0)  -->
<!DOCTYPE svg PUBLIC "-//W3C//DTD SVG 1.1//EN" "http://www.w3.org/Graphics/SVG/1.1/DTD/svg11.dtd">
<svg version="1.1" id="Layer_1" xmlns="http://www.w3.org/2000/svg" xmlns:xlink="http://www.w3.org/1999/xlink" x="0px" y="0px"
	 width="792px" height="612px" viewBox="332 -242 792 612" style="enable-background:new 332 -242 792 612;" xml:space="preserve">
<style type="text/css">
	.st0{fill:#007FB3;}
	.st1{fill:#85C446;}
	.st2{fill:#FFFFFF;}
	.st3{fill:#067FB3;}
	.st4{fill:#76848F;}
</style>
<path class="st0" d="M655.6,47.2h-5.3H377.1c-16.1,0-29.2,13.1-29.2,29.2v39.4c0,16.1,13.1,29.2,29.2,29.2h273.2h15.2H787V47.2
	H655.6z"/>
<path class="st1" d="M1078.8,47.2H864h-63.1h-17.4V145h7H864h214.8c16.1,0,29.2-13.1,29.2-29.2V76.4
	C1108,60.3,1094.9,47.2,1078.8,47.2z"/>
<path class="st2" d="M1057.9,68.8c5.3,0,10,0.9,14.2,2.8c4.2,1.9,7.7,4.9,10.4,8.9c2.5,3.6,4.1,7.7,4.8,12.4c0.4,2.8,0.6,6.8,0.5,12
	h-44c0.2,6,2.4,10.3,6.3,12.7c2.4,1.5,5.3,2.3,8.7,2.3c3.6,0,6.5-0.9,8.8-2.8c1.2-1,2.3-2.4,3.2-4.2h16.1c-0.4,3.6-2.4,7.2-5.9,10.9
	c-5.4,5.9-13,8.8-22.7,8.8c-8,0-15.1-2.5-21.3-7.4c-3.3-2.7-5.8-6.3-7.3-10.8v16.2h-16.1V92.2c0-2.3-0.4-4.2-1.1-5.6
	c-1.4-2.8-4-4.2-7.7-4.2c-4.4,0-7.4,1.8-9,5.4c-0.9,1.9-1.3,4.2-1.3,6.9v35.9h-15.9V94.7c0-3.6-0.4-6.2-1.1-7.8
	c-1.3-2.9-3.9-4.4-7.8-4.4c-4.5,0-7.5,1.5-9.1,4.4c-0.8,1.7-1.3,4.1-1.3,7.4v36.3h-16v-19.5c-1.2,4.5-3.3,8.6-6.3,12.2
	c-5.1,6.3-12.8,9.4-23.2,9.4s-18.1-3.1-23.2-9.4c-3.8-4.7-6.2-10.1-7.1-16.2v23.5h-16.1V94c0-3.2-0.5-5.9-1.6-7.9
	c-1.4-2.8-4.2-4.2-8.2-4.2c-4.1,0-7.3,1.4-9.4,4.2c-2.1,2.8-3.2,6.8-3.2,11.9v32.6h-15.7v-74H845v21.6c2.3-3.5,4.9-5.9,7.9-7.3
	s6.2-2.1,9.5-2.1c3.7,0,7.1,0.6,10.1,1.9s5.5,3.2,7.5,5.9c1.7,2.2,2.7,4.6,3,6.9c0.3,2.2,0.5,5.8,0.5,10.6c1-6.1,3.3-11.5,7.1-16.2
	c5.1-6.4,12.8-9.6,23.2-9.6s18.1,3.2,23.2,9.6c2.9,3.7,5,7.8,6.3,12.2V70.3h15.3v8.8c1.9-3.1,3.8-5.4,5.5-6.7
	c3.1-2.4,7-3.5,11.9-3.5c4.6,0,8.3,1,11.2,3c2.3,1.9,4,4.3,5.2,7.3c2.1-3.6,4.6-6.1,7.7-7.8c3.2-1.7,6.9-2.5,10.8-2.5
	c2.7,0,5.3,0.5,7.9,1.5c2.6,1,4.9,2.8,7,5.4c1.7,2.1,2.8,4.7,3.4,7.7c0.2,1.1,0.3,2.5,0.4,4.1c1.4-4.3,3.5-7.8,6.4-10.8
	C1041.8,71.6,1049,68.8,1057.9,68.8L1057.9,68.8z M914,119.6c4.6,0,8.2-1.6,10.6-4.9c2.5-3.3,3.7-8,3.7-14s-1.2-10.7-3.7-14
	s-6-4.9-10.6-4.9s-8.2,1.6-10.7,4.9s-3.7,7.9-3.7,14c0,6,1.2,10.7,3.7,14S909.3,119.6,914,119.6L914,119.6z M1057.9,81.8
	c-4.1,0-7.2,1.2-9.4,3.4c-2.2,2.3-3.6,5.4-4.2,9.3h27.2c-0.3-4.2-1.7-7.3-4.2-9.5C1064.7,82.9,1061.6,81.8,1057.9,81.8L1057.9,81.8z
	"/>
<g>
	<g>
		<path class="st2" d="M788.3,72.3v64.2c0,8.2-6.7,14.8-14.8,14.8h-90.2c-8.2,0-14.8-6.7-14.8-14.8V72.3c-4.6,0-9.3,0.1-13.9,0
			c-7.2-0.2-10.3-7.3-5.5-12.7l7.5-8.4l15.1-17V5.7H697l17.7-19.9c9.2-10.3,19.1-9.9,28.1,0.2L772,18.6l29.1,32.8
			c1.7,1.9,3.4,3.9,5.2,5.8c2.5,2.8,4.8,6.2,3.2,10.1c-1.8,4.4-6.4,4.7-10.4,4.8L788.3,72.3L788.3,72.3z"/>
		<path class="st3" d="M728.5-21.7c4.8,0,9.6,2.6,14.2,7.8l29.2,32.6L801,51.5c1.7,1.9,3.4,3.9,5.2,5.8c2.5,2.8,4.8,6.2,3.2,10.1
			c-1.8,4.4-6.4,4.7-10.4,4.8l-10.6,0.2v64.2c0,8.2-6.7,14.8-14.8,14.8h-90.2c-8.2,0-14.8-6.7-14.8-14.8V72.4c-2.9,0-5.7,0-8.6,0
			c-1.8,0-3.5,0-5.3,0c-7.2-0.2-10.3-7.3-5.5-12.7l7.5-8.4l15.1-17V5.8h25.3l17.7-19.9C719.1-19.3,723.8-21.7,728.5-21.7
			 M728.5-24.7L728.5-24.7c-5.7,0-11.1,2.9-16.1,8.6L695.6,2.8h-24h-3v3v27.3l-14.3,16.1l-7.5,8.4c-3,3.4-3.8,7.8-2.2,11.5
			c1.6,3.7,5.4,6.1,9.9,6.2c1.6,0,3.4,0,5.4,0c1.8,0,3.5,0,5.3,0c0.1,0,0.2,0,0.3,0v61.2c0,9.8,8,17.8,17.8,17.8h90.2
			c9.8,0,17.8-8,17.8-17.8V75.3l7.7-0.1c3.4-0.1,10.5-0.2,13.2-6.6c2.6-6.2-2-11.3-3.7-13.2c-1.1-1.3-2.3-2.5-3.4-3.8
			c-0.6-0.7-1.2-1.3-1.8-2l-29.1-32.8L744.9-16C739.7-21.8,734.2-24.7,728.5-24.7L728.5-24.7z"/>
	</g>
	<path class="st4" d="M782.2,67.3v70.3c0,4.8-3.9,8.7-8.7,8.7h-90.2c-4.8,0-8.7-3.9-8.7-8.7V67.3h-4.2c-5.2,0-10.5,0-15.7,0
		c-2-0.1-2.2-1-1.1-2.5l7.5-8.4l29-32.6L719.2-9c6.6-8.2,12.9-7.1,19,0.2l29.1,32.6l29.1,32.8c1.7,2,3.5,3.9,5.2,5.9
		c3.4,3.7,3,4.6-2.8,4.6l-12.3,0.2H782.2L782.2,67.3z"/>
	<polygon class="st4" points="675.5,9.4 692.9,9.4 692.9,9.9 675.5,29.5 	"/>
	<path class="st2" d="M760.7,108.3h9.2c-2.9,5.8-7.3,10.3-13.2,13.6c-6.8,3.8-15.1,5.6-24.9,5.6c-9.5,0-17.7-1.6-24.6-4.8
		c-6.9-3.2-12-7.9-15.4-14.1c-3.4-6.2-5-12.9-5-20.2c0-8,1.9-15.5,5.7-22.4c3.8-6.9,9.1-12.1,15.7-15.6c6.6-3.5,14.2-5.2,22.8-5.2
		c7.2,0,13.7,1.4,19.3,4.2c5.6,2.8,9.9,6.8,12.9,11.9s4.5,10.8,4.5,16.9c0,7.3-2.3,13.8-6.8,19.7c-5.7,7.4-12.9,11.1-21.8,11.1
		c-2.4,0-4.2-0.4-5.4-1.2c-1.2-0.8-2-2-2.4-3.6c-3.4,3.3-7.3,4.9-11.7,4.9c-4.8,0-8.7-1.6-11.9-4.9c-3.2-3.3-4.7-7.6-4.7-13
		c0-6.7,1.9-12.8,5.7-18.3c4.6-6.7,10.5-10.1,17.7-10.1c5.1,0,8.9,1.9,11.3,5.8l1.1-4.8h11.4l-6.5,30.7c-0.4,1.9-0.6,3.2-0.6,3.8
		c0,0.7,0.2,1.2,0.5,1.6c0.3,0.3,0.7,0.5,1.2,0.5c1.4,0,3.2-0.8,5.4-2.5c2.9-2.2,5.3-5.1,7.1-8.7c1.8-3.6,2.7-7.4,2.7-11.3
		c0-7-2.5-12.9-7.7-17.6c-5.1-4.7-12.3-7.1-21.4-7.1c-7.8,0-14.4,1.6-19.8,4.7c-5.4,3.2-9.5,7.6-12.2,13.3
		c-2.8,5.7-4.1,11.7-4.1,17.8c0,6,1.5,11.5,4.6,16.4c3.1,4.9,7.4,8.5,12.9,10.8s11.9,3.4,19,3.4c6.9,0,12.8-0.9,17.7-2.8
		C753.7,114.9,757.7,112.1,760.7,108.3L760.7,108.3z M714.1,90.7c0,3.6,0.7,6.3,2.2,8s3.3,2.6,5.5,2.6c1.6,0,3.2-0.4,4.6-1.2
		c1.1-0.6,2.2-1.5,3.2-2.7c1.5-1.7,2.8-4.3,3.9-7.6c1.1-3.3,1.7-6.4,1.7-9.3c0-3.2-0.8-5.7-2.3-7.4c-1.5-1.7-3.4-2.6-5.7-2.6
		c-2.5,0-4.8,0.9-6.9,2.8s-3.7,4.6-4.8,8.1C714.6,84.9,714.1,88,714.1,90.7L714.1,90.7z"/>
</g>
<g>
	<polygon class="st2" points="501.9,87 518,87 518,102.8 501.8,102.8 501.8,87 	"/>
	<path class="st2" d="M621.3,66h-23.4v57.7h14.4v-8.9h9c13.7,0,25-11,25-24.4C646.3,77,635,66,621.3,66z M621.3,100h-9V80.8h9
		c5.4,0,9.8,4.3,9.8,9.6S626.7,100,621.3,100z"/>
	<path class="st2" d="M425.7,116c-5.4,4.9-12.9,7.8-20.3,7.8c-16.2,0-29.5-13-29.5-28.8s13.3-28.8,29.5-28.8
		c7.2,0,14.6,2.7,19.9,7.5l-9.1,12.1c-2.6-3-6.8-4.8-10.8-4.8c-7.8,0-14.3,6.3-14.3,14s6.4,14,14.3,14c4.2,0,8.2-1.8,10.9-4.9
		L425.7,116L425.7,116z"/>
	<path class="st2" d="M660.2,115.3c0,1.4-0.4,2.7-1.1,3.9c-0.7,1.2-1.7,2.2-2.9,2.9c-1.2,0.7-2.5,1-3.9,1c-1.4,0-2.7-0.4-3.9-1
		c-1.2-0.7-2.2-1.7-2.9-2.9c-0.7-1.2-1.1-2.5-1.1-3.9s0.4-2.7,1.1-3.9c0.7-1.2,1.7-2.2,2.9-2.9c1.2-0.7,2.5-1,3.9-1
		c1.4,0,2.7,0.3,3.9,1s2.2,1.7,2.9,2.9C659.8,112.6,660.2,113.9,660.2,115.3L660.2,115.3z M658.6,115.3c0-1.7-0.6-3.2-1.9-4.5
		c-1.2-1.2-2.7-1.9-4.5-1.9s-3.2,0.6-4.5,1.9c-1.2,1.2-1.9,2.7-1.9,4.5s0.6,3.2,1.9,4.5c1.2,1.2,2.7,1.9,4.5,1.9s3.2-0.6,4.5-1.9
		C658,118.6,658.6,117.1,658.6,115.3L658.6,115.3z M648.7,111.1h3.8c1.1,0,1.8,0.2,2.3,0.6s0.7,1,0.7,1.7c0,0.6-0.2,1-0.5,1.5
		c-0.4,0.4-0.9,0.7-1.7,0.9c0.3,0.1,0.6,0.3,0.7,0.4c0.2,0.2,0.4,0.5,0.7,0.9c0,0,0.5,0.8,1.4,2.4h-2.5c-0.8-1.6-1.3-2.5-1.6-2.9
		c-0.3-0.3-0.5-0.5-0.8-0.5c-0.1,0-0.1,0-0.3,0v3.3h-2.1v-8.3H648.7z M650.8,114.7h0.9c0.6,0,1-0.1,1.3-0.3c0.2-0.2,0.4-0.4,0.4-0.8
		s-0.1-0.6-0.4-0.8c-0.2-0.2-0.6-0.3-1.2-0.3h-1L650.8,114.7L650.8,114.7z"/>
	<path class="st2" d="M556.7,66.1c-16.2,0-29.5,13-29.5,28.8s13.3,28.8,29.5,28.8s29.5-13,29.5-28.8S572.9,66.1,556.7,66.1z
		 M556.7,109c-7.9,0-14.3-6.3-14.3-14c0-7.8,6.4-14,14.3-14c7.8,0,14.3,6.3,14.3,14S564.6,109,556.7,109z"/>
	<path class="st2" d="M463.3,66.1c-16.2,0-29.5,13-29.5,28.8s13.3,28.8,29.5,28.8c16.2,0,29.5-13,29.5-28.8S479.5,66.1,463.3,66.1z
		 M463.3,109c-7.8,0-14.3-6.3-14.3-14c0-7.8,6.4-14,14.3-14c7.8,0,14.3,6.3,14.3,14S471.2,109,463.3,109z"/>
</g>
</svg>
