<?xml version="1.0" encoding="utf-8"?>
<!-- Generator: Adobe Illustrator 18.1.1, SVG Export Plug-In . SVG Version: 6.00 Build 0)  -->
<!DOCTYPE svg PUBLIC "-//W3C//DTD SVG 1.1//EN" "http://www.w3.org/Graphics/SVG/1.1/DTD/svg11.dtd">
<svg version="1.1" id="Layer_1" xmlns="http://www.w3.org/2000/svg" xmlns:xlink="http://www.w3.org/1999/xlink" x="0px" y="0px"
	 width="792px" height="612px" viewBox="90 91 792 612" enable-background="new 90 91 792 612" xml:space="preserve">
<g>
	<path fill="#262626" d="M314.7,399.4c-16.2,0-29.5,13-29.5,28.8c0,15.8,13.3,28.8,29.5,28.8s29.5-13,29.5-28.8
		C344.2,412.3,330.9,399.4,314.7,399.4z M314.7,442.1c-7.8,0-14.3-6.3-14.3-14c0-7.7,6.4-14,14.3-14s14.3,6.3,14.3,14
		C329,435.9,322.6,442.1,314.7,442.1z"/>
	<rect x="259.9" y="420.2" fill="#262626" width="16.2" height="15.8"/>
	<path fill="#262626" d="M163.5,442.1c-7.8,0-14.3-6.3-14.3-14c0-7.7,6.4-14,14.3-14c4,0,8.1,1.8,10.8,4.8l9.1-12.1
		c-5.3-4.8-12.7-7.5-19.9-7.5c-16.2,0-29.5,13-29.5,28.8c0,15.8,13.3,28.8,29.5,28.8c7.4,0,14.8-2.8,20.3-7.8l-9.4-12
		C171.7,440.3,167.6,442.1,163.5,442.1z"/>
	<path fill="#262626" d="M221.3,399.4c-16.2,0-29.5,13-29.5,28.8c0,15.8,13.3,28.8,29.5,28.8c16.2,0,29.5-13,29.5-28.8
		C250.9,412.3,237.5,399.4,221.3,399.4z M221.3,442.1c-7.8,0-14.3-6.3-14.3-14c0-7.7,6.4-14,14.3-14s14.3,6.3,14.3,14
		C235.6,435.9,229.2,442.1,221.3,442.1z"/>
	<path fill="#262626" d="M379.3,399.3H356V457h14.4v-8.9h9c13.7,0,25-11,25-24.4C404.3,410.2,393.1,399.3,379.3,399.3z M379.3,433.3
		h-8.9l0-19.2l9,0c5.4,0,9.8,4.3,9.8,9.6C389.1,429,384.7,433.3,379.3,433.3z"/>
	<path fill="#262626" d="M412,449.5c-0.2-0.1-0.4-0.3-0.7-0.4c0.8-0.2,1.4-0.5,1.7-0.9c0.4-0.4,0.5-0.9,0.5-1.5
		c0-0.7-0.2-1.3-0.7-1.7c-0.5-0.4-1.2-0.6-2.3-0.6h-3.8v8.4h2.1v-3.3c0.1,0,0.2,0,0.3,0c0.3,0,0.5,0.2,0.8,0.5
		c0.3,0.3,0.8,1.3,1.6,2.9h2.5c-0.9-1.6-1.3-2.4-1.4-2.4C412.4,450,412.2,449.7,412,449.5z M409.8,447.9h-0.9v-2.1h1
		c0.6,0,1,0.1,1.2,0.3c0.2,0.2,0.4,0.4,0.4,0.8s-0.1,0.6-0.4,0.8C410.8,447.8,410.4,447.9,409.8,447.9z"/>
	<path fill="#262626" d="M414.3,441.8c-1.2-0.7-2.5-1-3.9-1c-1.4,0-2.7,0.3-3.9,1c-1.2,0.7-2.2,1.7-2.9,2.9
		c-0.7,1.2-1.1,2.5-1.1,3.9c0,1.4,0.4,2.7,1.1,3.9c0.7,1.2,1.7,2.2,2.9,2.9c1.2,0.7,2.5,1,3.9,1c1.4,0,2.7-0.4,3.9-1
		c1.2-0.7,2.2-1.7,2.9-2.9c0.7-1.2,1.1-2.5,1.1-3.9c0-1.4-0.4-2.7-1.1-3.9C416.4,443.4,415.5,442.5,414.3,441.8z M414.8,453
		c-1.2,1.2-2.7,1.9-4.5,1.9s-3.2-0.6-4.5-1.9c-1.2-1.2-1.9-2.7-1.9-4.5c0-1.7,0.6-3.2,1.9-4.5c1.2-1.2,2.7-1.9,4.5-1.9
		s3.2,0.6,4.5,1.9c1.2,1.2,1.9,2.7,1.9,4.5C416.7,450.3,416.1,451.8,414.8,453z"/>
	<path fill="#262626" d="M840.6,413.8c-2.8-4.1-6.2-7-10.4-8.9c-4.2-1.9-8.9-2.8-14.2-2.8c-8.8,0-16,2.8-21.6,8.3
		c-2.9,2.9-5,6.5-6.4,10.8c-0.1-1.6-0.2-3-0.4-4.1c-0.6-3.1-1.7-5.6-3.4-7.7c-2.1-2.6-4.4-4.4-7-5.4c-2.6-1-5.2-1.5-7.9-1.5
		c-4,0-7.6,0.8-10.8,2.5c-3.1,1.7-5.6,4.2-7.7,7.8c-1.2-2.9-2.9-5.4-5.2-7.3c-2.8-2-6.6-3-11.2-3c-4.9,0-8.8,1.2-11.9,3.5
		c-1.7,1.3-3.6,3.6-5.5,6.7v-8.8h-15.3v19.8c-1.2-4.5-3.3-8.5-6.3-12.2c-5.1-6.4-12.8-9.6-23.2-9.6s-18.1,3.2-23.2,9.6
		c-3.8,4.8-6.2,10.2-7.1,16.2c0-4.8-0.2-8.4-0.5-10.6c-0.4-2.4-1.4-4.7-3-6.9c-1.9-2.7-4.4-4.6-7.5-5.9c-3-1.3-6.4-1.9-10.1-1.9
		c-3.3,0-6.5,0.7-9.5,2.1c-3,1.4-5.6,3.8-7.9,7.3v-21.6h-15.7v74h15.7v-32.6c0-5.2,1.1-9.1,3.2-11.9c2.2-2.8,5.3-4.2,9.4-4.2
		c4,0,6.7,1.4,8.2,4.2c1.1,2,1.6,4.6,1.6,7.9v36.7h16.1v-23.5c1,6.1,3.3,11.5,7.1,16.2c5.1,6.3,12.8,9.4,23.2,9.4s18.1-3.1,23.2-9.4
		c2.9-3.6,5-7.7,6.3-12.2v19.5h16v-36.3c0-3.3,0.4-5.8,1.3-7.4c1.5-2.9,4.6-4.4,9.1-4.4c3.9,0,6.5,1.5,7.8,4.4
		c0.7,1.6,1.1,4.2,1.1,7.8v35.9h15.9V428c0-2.7,0.4-5,1.3-6.9c1.7-3.6,4.7-5.4,9-5.4c3.8,0,6.3,1.4,7.7,4.2c0.7,1.5,1.1,3.3,1.1,5.6
		v38.4h16.1l0-16.2c1.5,4.5,4,8.1,7.3,10.8c6.2,4.9,13.2,7.4,21.3,7.4c9.7,0,17.3-2.9,22.7-8.8c3.5-3.7,5.4-7.3,5.9-10.9H829
		c-0.9,1.8-2,3.2-3.2,4.2c-2.3,1.8-5.2,2.8-8.8,2.8c-3.4,0-6.3-0.8-8.7-2.3c-4-2.4-6.1-6.7-6.3-12.7h44c0.1-5.2-0.1-9.2-0.5-12
		C844.6,421.5,843,417.3,840.6,413.8z M682.6,447.9c-2.5,3.3-6,4.9-10.6,4.9s-8.2-1.6-10.7-4.9c-2.5-3.3-3.7-8-3.7-14
		c0-6,1.2-10.7,3.7-14c2.5-3.3,6-4.9,10.7-4.9s8.2,1.6,10.6,4.9c2.5,3.3,3.7,7.9,3.7,14C686.3,439.9,685.1,444.6,682.6,447.9z
		 M802.3,427.7c0.6-3.9,2-7,4.2-9.3c2.2-2.3,5.4-3.4,9.4-3.4c3.7,0,6.9,1.1,9.4,3.2c2.5,2.2,3.9,5.3,4.2,9.5H802.3z"/>
	<path fill="#262626" d="M506.8,450.1c-4.9,1.9-10.9,2.8-17.7,2.8c-7.1,0-13.5-1.1-19-3.4c-5.5-2.3-9.8-5.9-12.9-10.8
		c-3.1-4.9-4.6-10.4-4.6-16.4c0-6.2,1.4-12.1,4.1-17.8c2.7-5.7,6.8-10.1,12.2-13.3c5.4-3.2,12-4.7,19.8-4.7c9.2,0,16.3,2.4,21.4,7.1
		c5.1,4.7,7.7,10.6,7.7,17.6c0,3.9-0.9,7.7-2.7,11.3c-1.8,3.6-4.2,6.6-7.1,8.7c-2.2,1.7-4,2.5-5.4,2.5c-0.5,0-0.9-0.2-1.2-0.5
		c-0.3-0.4-0.5-0.9-0.5-1.6c0-0.6,0.2-1.8,0.6-3.8l6.5-30.7h-11.4l-1.1,4.8c-2.4-3.9-6.2-5.8-11.3-5.8c-7.2,0-13.1,3.4-17.7,10.1
		c-3.8,5.5-5.7,11.6-5.7,18.3c0,5.4,1.6,9.8,4.7,13c3.2,3.3,7.1,4.9,11.9,4.9c4.4,0,8.3-1.6,11.7-4.9c0.4,1.6,1.2,2.8,2.4,3.6
		c1.2,0.8,3,1.2,5.4,1.2c8.9,0,16.1-3.7,21.8-11.1c4.5-5.9,6.8-12.4,6.8-19.7c0-6.1-1.5-11.7-4.5-16.9c-3-5.2-7.3-9.1-12.9-11.9
		c-5.6-2.8-12.1-4.2-19.3-4.2c-8.5,0-16.1,1.7-22.8,5.2c-6.6,3.5-11.9,8.7-15.7,15.6c-3.8,6.9-5.7,14.4-5.7,22.4
		c0,7.3,1.7,14,5,20.2c3.4,6.2,8.5,10.9,15.4,14.1c6.9,3.2,15.1,4.8,24.6,4.8c9.8,0,18.1-1.9,24.9-5.6c5.9-3.3,10.4-7.8,13.2-13.6
		h-9.2C515.7,445.3,511.7,448.2,506.8,450.1z M491.6,423c-1.1,3.3-2.4,5.9-3.9,7.6c-1.1,1.2-2.1,2.1-3.2,2.7c-1.4,0.8-3,1.2-4.6,1.2
		c-2.2,0-4-0.9-5.5-2.6c-1.5-1.7-2.2-4.4-2.2-8c0-2.7,0.5-5.8,1.6-9.3c1.1-3.5,2.6-6.2,4.8-8.1c2.1-1.9,4.4-2.8,6.9-2.8
		c2.3,0,4.2,0.9,5.7,2.6c1.5,1.7,2.3,4.2,2.3,7.4C493.3,416.6,492.7,419.7,491.6,423z"/>
	<path fill="#262626" d="M836.9,378.9h-279l-25.8-29L503,317.2c-5.2-5.8-10.7-8.8-16.5-8.8h0c-5.7,0-11.1,2.9-16.1,8.6L453.6,336
		h-24h-3v3v27.3l-11.2,12.6H135.1c-16.9,0-30.7,13.8-30.7,30.7V449c0,16.9,13.8,30.7,30.7,30.7h291.4c3.2,4.7,8.6,7.9,14.8,7.9h90.2
		c6.1,0,11.6-3.1,14.8-7.9h0.3h290.3c16.9,0,30.7-13.8,30.7-30.7v-39.4C867.6,392.7,853.8,378.9,836.9,378.9z M135.1,476.7
		c-15.3,0-27.7-12.4-27.7-27.7v-39.4c0-15.3,12.4-27.7,27.7-27.7h277.7l-0.5,0.6l-7.5,8.4c-3,3.4-3.8,7.8-2.2,11.5
		c1.6,3.7,5.4,6.1,9.9,6.2c1.6,0,3.4,0,5.4,0c1.8,0,3.5,0,5.3,0c0.1,0,0.2,0,0.3,0v61.2c0,2.5,0.5,4.8,1.4,7H135.1z M546.3,405.5
		v64.2c0,0.5,0,1-0.1,1.5c0,0.2-0.1,0.4-0.1,0.6c0,0.3-0.1,0.5-0.1,0.8c-0.1,0.3-0.1,0.6-0.2,0.8c0,0.2-0.1,0.3-0.1,0.5
		c-0.1,0.3-0.2,0.6-0.3,0.9c0,0.1-0.1,0.2-0.1,0.3c-0.1,0.3-0.3,0.7-0.5,1c0,0.1-0.1,0.1-0.1,0.2c-0.1,0.2-0.2,0.4-0.4,0.6
		c-0.2,0.3-0.3,0.6-0.5,0.9c-0.1,0.2-0.2,0.3-0.4,0.5c-0.3,0.4-0.6,0.8-1,1.2c-2.7,3-6.6,4.9-10.9,4.9h-90.2
		c-4.3,0-8.2-1.9-10.9-4.9c-0.4-0.4-0.8-0.9-1.1-1.4c0,0,0,0,0,0c-0.4-0.5-0.7-1-1-1.6c-1.1-2.1-1.7-4.4-1.7-7v-64.2
		c-2.9,0-5.7,0-8.6,0c-1.8,0-3.5,0-5.3,0c-7.2-0.2-10.3-7.3-5.5-12.7l7.5-8.4l2.3-2.6h0l2.7-3l10.2-11.4V339h25.3l17.7-19.9
		c4.5-5.1,9.2-7.6,13.9-7.6c4.8,0,9.6,2.6,14.2,7.8l29.2,32.6l29.1,32.8c1.7,1.9,3.4,3.9,5.2,5.8c2.5,2.8,4.8,6.2,3.2,10.1
		c-1.8,4.4-6.4,4.7-10.4,4.8L546.3,405.5z M864.6,449c0,15.3-12.4,27.7-27.7,27.7h-289c0.9-2.1,1.4-4.5,1.4-7v-61.2l7.7-0.1
		c3.4-0.1,10.5-0.2,13.2-6.6c2.6-6.2-2-11.3-3.7-13.2c-1.1-1.3-2.3-2.5-3.4-3.8c-0.6-0.7-1.2-1.3-1.8-2l-0.7-0.8h276.3
		c15.3,0,27.7,12.4,27.7,27.7V449z"/>
</g>
</svg>
