<?xml version="1.0" encoding="utf-8"?>
<!-- Generator: Adobe Illustrator 18.1.1, SVG Export Plug-In . SVG Version: 6.00 Build 0)  -->
<!DOCTYPE svg PUBLIC "-//W3C//DTD SVG 1.1//EN" "http://www.w3.org/Graphics/SVG/1.1/DTD/svg11.dtd">
<svg version="1.1" id="Layer_1" xmlns="http://www.w3.org/2000/svg" xmlns:xlink="http://www.w3.org/1999/xlink" x="0px" y="0px"
	 width="792px" height="612px" viewBox="90 91 792 612" enable-background="new 90 91 792 612" xml:space="preserve">
<g>
	<path fill="#262626" d="M413.6,380.2h-5.3H135.1c-16.1,0-29.2,13.1-29.2,29.2v39.4c0,16.1,13.1,29.2,29.2,29.2h273.2h15.2H545
		v-97.8H413.6z"/>
	<path fill-rule="evenodd" clip-rule="evenodd" fill="#FFFFFF" d="M259.9,420H276v15.8h-16.2V420L259.9,420z M370.3,447.8h9
		c13.7,0,25-11,25-24.4c0-13.4-11.3-24.4-25-24.4h-23.4v57.7h14.4V447.8L370.3,447.8z M370.3,433l0-19.2l9,0c5.4,0,9.8,4.3,9.8,9.6
		c0,5.3-4.4,9.6-9.8,9.6H370.3L370.3,433z M314.7,399.1c16.2,0,29.5,13,29.5,28.8s-13.3,28.8-29.5,28.8s-29.5-13-29.5-28.8
		S298.5,399.1,314.7,399.1L314.7,399.1z M314.7,414c7.8,0,14.3,6.3,14.3,14c0,7.7-6.4,14-14.3,14s-14.3-6.3-14.3-14
		C300.4,420.2,306.8,414,314.7,414L314.7,414z M183.7,449c-5.4,4.9-12.9,7.8-20.3,7.8c-16.2,0-29.5-13-29.5-28.8
		s13.3-28.8,29.5-28.8c7.2,0,14.6,2.7,19.9,7.5l-9.1,12.1c-2.6-3-6.8-4.8-10.8-4.8c-7.8,0-14.3,6.3-14.3,14c0,7.7,6.4,14,14.3,14
		c4.2,0,8.2-1.8,10.9-4.9L183.7,449L183.7,449z M221.3,399.1c16.2,0,29.5,13,29.5,28.8s-13.3,28.8-29.5,28.8
		c-16.2,0-29.5-13-29.5-28.8S205.1,399.1,221.3,399.1L221.3,399.1z M221.3,414c7.8,0,14.3,6.3,14.3,14c0,7.7-6.4,14-14.3,14
		c-7.8,0-14.3-6.3-14.3-14C207,420.2,213.4,414,221.3,414L221.3,414z"/>
	<path fill="#FFFFFF" d="M418.2,448.3c0,1.4-0.4,2.7-1.1,3.9c-0.7,1.2-1.7,2.2-2.9,2.9c-1.2,0.7-2.5,1-3.9,1c-1.4,0-2.7-0.4-3.9-1
		c-1.2-0.7-2.2-1.7-2.9-2.9c-0.7-1.2-1.1-2.5-1.1-3.9c0-1.4,0.4-2.7,1.1-3.9c0.7-1.2,1.7-2.2,2.9-2.9c1.2-0.7,2.5-1,3.9-1
		c1.4,0,2.7,0.3,3.9,1c1.2,0.7,2.2,1.7,2.9,2.9C417.8,445.6,418.2,446.9,418.2,448.3L418.2,448.3z M416.6,448.3
		c0-1.7-0.6-3.2-1.9-4.5c-1.2-1.2-2.7-1.9-4.5-1.9s-3.2,0.6-4.5,1.9c-1.2,1.2-1.9,2.7-1.9,4.5s0.6,3.2,1.9,4.5
		c1.2,1.2,2.7,1.9,4.5,1.9s3.2-0.6,4.5-1.9C416,451.6,416.6,450.1,416.6,448.3L416.6,448.3z M406.7,444.1h3.8c1.1,0,1.8,0.2,2.3,0.6
		c0.5,0.4,0.7,1,0.7,1.7c0,0.6-0.2,1-0.5,1.5c-0.4,0.4-0.9,0.7-1.7,0.9c0.3,0.1,0.6,0.3,0.7,0.4c0.2,0.2,0.4,0.5,0.7,0.9
		c0,0,0.5,0.8,1.4,2.4h-2.5c-0.8-1.6-1.3-2.5-1.6-2.9c-0.3-0.3-0.5-0.5-0.8-0.5c-0.1,0-0.1,0-0.3,0v3.3h-2.1V444.1L406.7,444.1z
		 M408.8,447.7h0.9c0.6,0,1-0.1,1.3-0.3c0.2-0.2,0.4-0.4,0.4-0.8s-0.1-0.6-0.4-0.8c-0.2-0.2-0.6-0.3-1.2-0.3h-1V447.7L408.8,447.7z"
		/>
	<path fill-rule="evenodd" clip-rule="evenodd" fill="#B2B2B2" d="M836.8,380.2H622h-63.1h-17.4v97.8h7H622h214.8
		c16.1,0,29.2-13.1,29.2-29.2v-39.4C866,393.3,852.9,380.2,836.8,380.2z"/>
	<path fill="#262626" d="M815.9,401.8c5.3,0,10,0.9,14.2,2.8c4.2,1.9,7.7,4.9,10.4,8.9c2.5,3.6,4.1,7.7,4.8,12.4
		c0.4,2.8,0.6,6.8,0.5,12h-44c0.2,6,2.4,10.3,6.3,12.7c2.4,1.5,5.3,2.3,8.7,2.3c3.6,0,6.5-0.9,8.8-2.8c1.2-1,2.3-2.4,3.2-4.2h16.1
		c-0.4,3.6-2.4,7.2-5.9,10.9c-5.4,5.9-13,8.8-22.7,8.8c-8,0-15.1-2.5-21.3-7.4c-3.3-2.7-5.8-6.3-7.3-10.8l0,16.2h-16.1v-38.4
		c0-2.3-0.4-4.2-1.1-5.6c-1.4-2.8-4-4.2-7.7-4.2c-4.4,0-7.4,1.8-9,5.4c-0.9,1.9-1.3,4.2-1.3,6.9v35.9h-15.9v-35.9
		c0-3.6-0.4-6.2-1.1-7.8c-1.3-2.9-3.9-4.4-7.8-4.4c-4.5,0-7.5,1.5-9.1,4.4c-0.8,1.7-1.3,4.1-1.3,7.4v36.3h-16v-19.5
		c-1.2,4.5-3.3,8.6-6.3,12.2c-5.1,6.3-12.8,9.4-23.2,9.4c-10.4,0-18.1-3.1-23.2-9.4c-3.8-4.7-6.2-10.1-7.1-16.2v23.5h-16.1V427
		c0-3.2-0.5-5.9-1.6-7.9c-1.4-2.8-4.2-4.2-8.2-4.2c-4.1,0-7.3,1.4-9.4,4.2c-2.1,2.8-3.2,6.8-3.2,11.9v32.6h-15.7v-74h15.7v21.6
		c2.3-3.5,4.9-5.9,7.9-7.3c3-1.4,6.2-2.1,9.5-2.1c3.7,0,7.1,0.6,10.1,1.9c3,1.3,5.5,3.2,7.5,5.9c1.7,2.2,2.7,4.6,3,6.9
		c0.3,2.2,0.5,5.8,0.5,10.6c1-6.1,3.3-11.5,7.1-16.2c5.1-6.4,12.8-9.6,23.2-9.6c10.4,0,18.1,3.2,23.2,9.6c2.9,3.7,5,7.8,6.3,12.2
		v-19.8h15.3v8.8c1.9-3.1,3.8-5.4,5.5-6.7c3.1-2.4,7-3.5,11.9-3.5c4.6,0,8.3,1,11.2,3c2.3,1.9,4,4.3,5.2,7.3
		c2.1-3.6,4.6-6.1,7.7-7.8c3.2-1.7,6.9-2.5,10.8-2.5c2.7,0,5.3,0.5,7.9,1.5c2.6,1,4.9,2.8,7,5.4c1.7,2.1,2.8,4.7,3.4,7.7
		c0.2,1.1,0.3,2.5,0.4,4.1c1.4-4.3,3.5-7.8,6.4-10.8C799.8,404.6,807,401.8,815.9,401.8L815.9,401.8z M672,452.6
		c4.6,0,8.2-1.6,10.6-4.9c2.5-3.3,3.7-8,3.7-14c0-6-1.2-10.7-3.7-14c-2.5-3.3-6-4.9-10.6-4.9c-4.6,0-8.2,1.6-10.7,4.9
		c-2.5,3.3-3.7,7.9-3.7,14c0,6,1.2,10.7,3.7,14C663.8,451,667.3,452.6,672,452.6L672,452.6z M815.9,414.8c-4.1,0-7.2,1.2-9.4,3.4
		c-2.2,2.3-3.6,5.4-4.2,9.3h27.2c-0.3-4.2-1.7-7.3-4.2-9.5C822.7,415.9,819.6,414.8,815.9,414.8L815.9,414.8z"/>
	<g>
		<g>
			<path fill-rule="evenodd" clip-rule="evenodd" fill="#FFFFFF" d="M546.3,405.3v64.2c0,8.2-6.7,14.8-14.8,14.8h-90.2
				c-8.2,0-14.8-6.7-14.8-14.8v-64.2c-4.6,0-9.3,0.1-13.9,0c-7.2-0.2-10.3-7.3-5.5-12.7l7.5-8.4l15.1-17v-28.5h25.3l17.7-19.9
				c9.2-10.3,19.1-9.9,28.1,0.2l29.2,32.6l29.1,32.8c1.7,1.9,3.4,3.9,5.2,5.8c2.5,2.8,4.8,6.2,3.2,10.1c-1.8,4.4-6.4,4.7-10.4,4.8
				L546.3,405.3L546.3,405.3z"/>
			<path fill="#262626" d="M486.5,311.3c4.8,0,9.6,2.6,14.2,7.8l29.2,32.6l29.1,32.8c1.7,1.9,3.4,3.9,5.2,5.8
				c2.5,2.8,4.8,6.2,3.2,10.1c-1.8,4.4-6.4,4.7-10.4,4.8l-10.6,0.2v64.2c0,8.2-6.7,14.8-14.8,14.8h-90.2c-8.2,0-14.8-6.7-14.8-14.8
				v-64.2c-2.9,0-5.7,0-8.6,0c-1.8,0-3.5,0-5.3,0c-7.2-0.2-10.3-7.3-5.5-12.7l7.5-8.4l15.1-17v-28.5h25.3l17.7-19.9
				C477.1,313.7,481.8,311.3,486.5,311.3 M486.5,308.3L486.5,308.3c-5.7,0-11.1,2.9-16.1,8.6l-16.8,18.9h-24h-3v3v27.3l-14.3,16.1
				l-7.5,8.4c-3,3.4-3.8,7.8-2.2,11.5c1.6,3.7,5.4,6.1,9.9,6.2c1.6,0,3.4,0,5.4,0c1.8,0,3.5,0,5.3,0c0.1,0,0.2,0,0.3,0v61.2
				c0,9.8,8,17.8,17.8,17.8h90.2c9.8,0,17.8-8,17.8-17.8v-61.2l7.7-0.1c3.4-0.1,10.5-0.2,13.2-6.6c2.6-6.2-2-11.3-3.7-13.2
				c-1.1-1.3-2.3-2.5-3.4-3.8c-0.6-0.7-1.2-1.3-1.8-2l-29.1-32.8L502.9,317C497.7,311.2,492.2,308.3,486.5,308.3L486.5,308.3z"/>
		</g>
		<path fill-rule="evenodd" clip-rule="evenodd" fill="#262626" d="M540.2,400.3v70.3c0,4.8-3.9,8.7-8.7,8.7h-90.2
			c-4.8,0-8.7-3.9-8.7-8.7v-70.3h-4.2c-5.2,0-10.5,0-15.7,0c-2-0.1-2.2-1-1.1-2.5l7.5-8.4l29-32.6l29.1-32.8
			c6.6-8.2,12.9-7.1,19,0.2l29.1,32.6l29.1,32.8c1.7,2,3.5,3.9,5.2,5.9c3.4,3.7,3,4.6-2.8,4.6l-12.3,0.2H540.2L540.2,400.3z"/>
		<polygon fill-rule="evenodd" clip-rule="evenodd" fill="#262626" points="433.5,342.4 450.9,342.4 450.9,342.9 433.5,362.5 
			433.5,342.4 		"/>
		<path fill="#FFFFFF" d="M518.7,441.3h9.2c-2.9,5.8-7.3,10.3-13.2,13.6c-6.8,3.8-15.1,5.6-24.9,5.6c-9.5,0-17.7-1.6-24.6-4.8
			c-6.9-3.2-12-7.9-15.4-14.1c-3.4-6.2-5-12.9-5-20.2c0-8,1.9-15.5,5.7-22.4c3.8-6.9,9.1-12.1,15.7-15.6c6.6-3.5,14.2-5.2,22.8-5.2
			c7.2,0,13.7,1.4,19.3,4.2c5.6,2.8,9.9,6.8,12.9,11.9c3,5.1,4.5,10.8,4.5,16.9c0,7.3-2.3,13.8-6.8,19.7
			c-5.7,7.4-12.9,11.1-21.8,11.1c-2.4,0-4.2-0.4-5.4-1.2c-1.2-0.8-2-2-2.4-3.6c-3.4,3.3-7.3,4.9-11.7,4.9c-4.8,0-8.7-1.6-11.9-4.9
			c-3.2-3.3-4.7-7.6-4.7-13c0-6.7,1.9-12.8,5.7-18.3c4.6-6.7,10.5-10.1,17.7-10.1c5.1,0,8.9,1.9,11.3,5.8l1.1-4.8h11.4l-6.5,30.7
			c-0.4,1.9-0.6,3.2-0.6,3.8c0,0.7,0.2,1.2,0.5,1.6c0.3,0.3,0.7,0.5,1.2,0.5c1.4,0,3.2-0.8,5.4-2.5c2.9-2.2,5.3-5.1,7.1-8.7
			c1.8-3.6,2.7-7.4,2.7-11.3c0-7-2.5-12.9-7.7-17.6c-5.1-4.7-12.3-7.1-21.4-7.1c-7.8,0-14.4,1.6-19.8,4.7
			c-5.4,3.2-9.5,7.6-12.2,13.3c-2.8,5.7-4.1,11.7-4.1,17.8c0,6,1.5,11.5,4.6,16.4c3.1,4.9,7.4,8.5,12.9,10.8
			c5.5,2.3,11.9,3.4,19,3.4c6.9,0,12.8-0.9,17.7-2.8C511.7,447.9,515.7,445.1,518.7,441.3L518.7,441.3z M472.1,423.7
			c0,3.6,0.7,6.3,2.2,8c1.5,1.7,3.3,2.6,5.5,2.6c1.6,0,3.2-0.4,4.6-1.2c1.1-0.6,2.2-1.5,3.2-2.7c1.5-1.7,2.8-4.3,3.9-7.6
			c1.1-3.3,1.7-6.4,1.7-9.3c0-3.2-0.8-5.7-2.3-7.4c-1.5-1.7-3.4-2.6-5.7-2.6c-2.5,0-4.8,0.9-6.9,2.8c-2.1,1.9-3.7,4.6-4.8,8.1
			C472.6,417.9,472.1,421,472.1,423.7L472.1,423.7z"/>
	</g>
</g>
</svg>
